<svg width="68.408081" height="85.035400" viewBox="0 0 68.4081 85.0354" fill="none" xmlns="http://www.w3.org/2000/svg" xmlns:xlink="http://www.w3.org/1999/xlink">
	<desc>
			Created with Pixso.
	</desc>
	<defs/>
	<path id="Vector" d="M43.7429 1.28979C43.0527 2.02075 41.4175 3.56812 40.1122 4.75732C35.7612 8.68335 34.8761 10.0874 34.7561 13.2971C34.666 15.9048 35.2961 17.8821 36.9315 20.1316C37.3666 20.7334 37.7267 21.1919 37.7267 21.1345C37.7267 21.0916 37.4567 20.533 37.1266 19.9023C35.8663 17.4954 35.4912 14.5723 36.1814 12.4946C36.8265 10.5459 37.7717 9.37109 40.9674 6.54834C41.6425 5.96094 42.4677 5.14429 42.8127 4.75732L43.4579 4.04102L43.3678 7.0498C43.3229 9.0415 43.2178 10.417 43.0527 11.1335C42.4977 13.5549 41.4175 15.4749 39.452 17.5813C38.0267 19.1143 37.6217 19.9883 38.0117 20.7048C38.0718 20.8337 38.1768 21.3782 38.2368 21.894L38.3268 22.8396L37.4716 23.3843C34.576 25.2183 32.5355 27.8689 31.7104 30.8779C31.4854 31.6802 31.3954 32.4541 31.3954 33.7007C31.3804 36.3513 31.8905 38.5579 33.1807 41.3376L33.8558 42.7991L33.6158 43.9453C33.3757 45.106 33.3008 48.5591 33.5107 49.4617C33.5858 49.8201 33.6758 49.8916 34.0509 49.8916L34.501 49.8916L34.606 48.0432C34.9961 41.4521 37.2766 37.6265 42.6327 34.5747C46.7585 32.2249 47.9739 30.9065 50.7194 25.8057C52.8799 21.7507 53.5699 20.676 55.2354 18.6272L56.1805 17.4666L54.8452 18.011C52.6848 18.8994 49.5791 19.7878 45.8284 20.5901C42.2277 21.3496 40.5923 21.7937 39.347 22.3955C38.9569 22.5818 38.5968 22.7395 38.5519 22.7395C38.5068 22.7395 38.4918 22.1663 38.5369 21.45C38.6118 19.9167 38.6268 19.8882 40.9524 17.5669C42.2126 16.3203 42.7377 15.6611 43.1729 14.8445C44.1331 13.0249 44.208 12.4946 44.103 8.98413C43.998 5.68872 44.178 3.53955 44.7782 1.14673C44.9282 0.530518 45.0482 0.0146484 45.0332 0.000244141C45.0182 -0.013916 44.4331 0.573486 43.7429 1.28979ZM50.6594 23.7568C47.6438 29.0581 45.5433 31.3079 40.7273 34.417C39.7821 35.0332 38.6719 35.8069 38.2667 36.1221C36.7815 37.2971 35.0861 39.6182 34.441 41.3518C34.2909 41.7673 34.1259 42.054 34.0809 41.9824C33.8408 41.6243 33.1957 38.7012 33.0457 37.3401C32.5505 32.8267 34.3059 28.8718 37.9967 26.2212C40.1122 24.688 42.0326 23.9861 45.9034 23.3125C47.5537 23.0259 50.1793 22.2952 51.3046 21.8225C51.5596 21.7222 51.7697 21.6504 51.7997 21.6648C51.8146 21.6792 51.3046 22.6248 50.6594 23.7568Z" fill="#151618" fill-opacity="1.000000" fill-rule="nonzero"/>
	<path id="Vector" d="M17.3447 4.86865C18.2395 8.09717 18.5079 12.3298 18.0754 16.2898C17.5386 21.2256 17.986 22.7178 21.1774 26.7783C22.0422 27.8689 23.0116 29.2893 23.3546 29.9207C24.324 31.8003 24.8458 34.469 24.8608 37.6829L24.8608 39.0173L24.5029 38.8738C23.6677 38.5725 22.1615 38.4434 18.3737 38.3716C16.1666 38.3286 13.8849 38.2283 13.3033 38.1707C12.7366 38.0991 12.2445 38.0703 12.2296 38.0847C12.1998 38.0991 12.498 38.3286 12.9006 38.6013C14.5858 39.7634 16.2859 41.27 18.2544 43.3503C19.4176 44.5701 20.8044 45.9187 21.3563 46.335C23.7125 48.1284 26.4117 49.1758 29.6776 49.5488C31.0198 49.7068 30.4829 49.2188 28.2162 48.272C24.6073 46.751 22.8029 45.5171 20.0291 42.6904C18.9851 41.6287 17.7175 40.4951 17.2253 40.165L16.3307 39.5913L18.0903 39.5913C22.7134 39.5913 25.3231 40.4521 27.545 42.7048C28.6487 43.8096 29.4391 45.187 29.8417 46.6648C29.9609 47.1384 30.0952 47.5544 30.1399 47.5974C30.2891 47.7266 30.2444 45.9043 30.0803 44.9001C29.7373 42.8196 28.0074 40.5239 26.0239 39.5195L25.1591 39.0891L25.1591 36.7217C25.1591 32.0154 24.7266 30.394 22.4598 26.7209C19.4623 21.8425 18.9702 19.9199 19.0597 13.1619C19.0895 11.0671 19.1343 9.34546 19.1492 9.35962C19.1492 9.37402 19.4623 9.77588 19.8202 10.2493C20.1931 10.7227 21.5203 12.1433 22.7878 13.4058C25.86 16.4619 27.0381 18.2268 27.7688 20.8813C28.589 23.7939 27.918 27.8689 25.9792 31.8003C25.6213 32.532 25.3529 33.1345 25.3678 33.1345C25.3977 33.1345 25.6511 32.7903 25.9495 32.3599C28.2908 28.9736 29.4689 25.157 29.2899 21.5842C29.1855 19.6331 28.7828 18.1121 27.9329 16.4189C27.0679 14.6685 26.0687 13.4346 23.1757 10.5505C20.9238 8.29785 19.3728 6.63354 17.7473 4.79688L17.121 4.07959L17.3447 4.86865Z" fill="#151618" fill-opacity="1.000000" fill-rule="nonzero"/>
	<path id="Vector" d="M44.2363 40.0361C40.8109 40.7349 38.4822 43.6445 38.4672 47.2104C38.4672 47.9236 38.4371 47.9807 38.0013 48.1233C37.2201 48.3801 37.791 48.5085 40.21 48.6084C43.6654 48.751 45.7838 48.3657 47.5867 47.2532C48.0825 46.9539 49.3295 45.998 50.3661 45.1279C52.4695 43.3879 53.5513 42.6462 55.3241 41.7476L56.511 41.1487L55.0686 41.0488C54.2874 41.0059 52.8901 40.8206 51.9587 40.6636C51.0272 40.5068 49.5548 40.25 48.6835 40.1074C46.8506 39.7935 45.5284 39.7651 44.2363 40.0361ZM49.1942 41.8188C49.9304 41.99 51.0723 42.1755 51.7032 42.2183L52.8751 42.3181L51.2375 43.5732C48.7435 45.4846 47.0909 46.3547 44.9725 46.8682C43.8907 47.1392 39.0531 47.8381 38.9479 47.7383C38.8127 47.6099 39.2484 46.2834 39.7742 45.2422C40.6907 43.4307 42.4185 42.1328 44.5969 41.605C45.7087 41.334 47.4515 41.4197 49.1942 41.8188Z" fill="#151618" fill-opacity="1.000000" fill-rule="nonzero"/>
	<path id="Vector" d="M10.7202 55.6406C10.5397 63.3896 10.9608 66.011 12.9913 69.9141C14.0592 71.9595 15.7888 74.3503 17.0221 75.4739C17.323 75.7476 17.5636 76.0066 17.5636 76.0498C17.5636 76.1074 13.8185 76.1218 9.26123 76.093C4.68896 76.0642 0.793457 76.093 0.5979 76.1362C0.417358 76.1794 0.176758 76.3811 0.0865479 76.5684C-0.0488281 76.8708 -0.0338135 76.9717 0.191772 77.2166C0.462524 77.5046 0.62793 77.5046 34.1382 77.5046C57.0751 77.5046 67.9042 77.4614 68.1147 77.3606C68.5059 77.1589 68.5059 76.4099 68.1147 76.2083C67.9192 76.1218 64.8209 76.0642 59.0754 76.0642L50.3369 76.0642L51.2544 75.0129C53.8713 72.0603 55.5709 68.8196 56.684 64.6858C56.9998 63.5481 57.0299 63.0583 57.0751 57.2971L57.1503 51.147L33.9878 51.147L10.8254 51.147L10.7202 55.6406Z" fill="#151618" fill-opacity="1.000000" fill-rule="nonzero"/>
	<path id="Vector" d="M4.47791 79.4548C9.56006 81.7461 17.3938 83.613 24.7013 84.2776C25.9945 84.405 26.5808 84.5039 26.3553 84.5605C26.0396 84.6453 26.0245 84.6594 26.2802 84.6736C26.4456 84.6877 27.468 84.7585 28.5355 84.8433C34.0387 85.2253 45.827 84.999 45.4962 84.5039C45.4512 84.4333 45.4662 84.405 45.5564 84.4473C45.6316 84.4897 45.9022 84.4756 46.1428 84.405C46.5638 84.2917 46.5638 84.2917 45.9774 84.2634C45.6165 84.2493 46.3833 84.0796 47.8569 83.8391C52.4429 83.1038 56.2169 82.2129 59.3143 81.1379C61.0886 80.5156 64.5319 79.1013 64.7725 78.875C64.8477 78.8044 53.1045 78.7478 33.9485 78.762L2.97424 78.7761L4.47791 79.4548Z" fill="#151618" fill-opacity="1.000000" fill-rule="nonzero"/>
</svg>
