<svg width="22.000000" height="22.000000" viewBox="0 0 22 22" fill="none" xmlns="http://www.w3.org/2000/svg" xmlns:xlink="http://www.w3.org/1999/xlink">
	<desc>
			Created with Pixso.
	</desc>
	<defs/>
	<path id="icon" d="M19 0C20.6567 0 22 1.34314 22 3L22 19C22 20.6569 20.6567 22 19 22L3 22C1.34326 22 0 20.6569 0 19L0 3C0 1.34314 1.34326 0 3 0L19 0ZM19 2C19.5522 2 20 2.44771 20 3L20 19C20 19.5523 19.5522 20 19 20L14 20L14 12.9999L16.0762 12.9999C16.5066 12.9999 16.8887 12.7245 17.0249 12.3161L17.4678 10.9871C17.6296 10.5014 17.2683 9.99992 16.7563 9.99992L14 9.99992L14 7.99992C14 7.49992 14.5 6.99992 15 6.99992L17 6.99992C17.5522 6.99992 18 6.5522 18 5.99992L18 5.31393C18 4.99091 17.7937 4.70129 17.4814 4.61887C16.1707 4.27295 15 4.27295 15 4.27295C12.5 4.27295 11 5.99992 11 7.49992L11 9.99992L9 9.99992C8.44775 9.99992 8 10.4476 8 10.9999L8 11.9999C8 12.5522 8.44775 12.9999 9 12.9999L11 12.9999L11 20L3 20C2.44775 20 2 19.5523 2 19L2 3C2 2.44772 2.44775 2 3 2L19 2Z" fill="#151618" fill-opacity="1.000000" fill-rule="evenodd"/>
</svg>
