<svg width="29.000000" height="12.000000" viewBox="0 0 29 12" fill="none" xmlns="http://www.w3.org/2000/svg" xmlns:xlink="http://www.w3.org/1999/xlink">
	<desc>
			Created with Pixso.
	</desc>
	<defs>
		<clipPath id="clip13_420">
			<rect id="logos:google-pay" width="29.000000" height="12.000000" fill="white" fill-opacity="0"/>
		</clipPath>
	</defs>
	<rect id="logos:google-pay" width="29.000000" height="12.000000" fill="#FFFFFF" fill-opacity="0"/>
	<g clip-path="url(#clip13_420)">
		<path id="Vector" d="M20.5564 3.23843C21.3536 3.23843 21.9697 3.46426 22.4409 3.9159C22.912 4.36749 23.1293 4.96967 23.1293 5.72237L23.1293 9.33532L22.1146 9.33532L22.1146 8.50743L22.0784 8.50743C21.6436 9.18491 21.0275 9.52361 20.3027 9.52361C19.6866 9.52361 19.1431 9.33537 18.7083 8.95908C18.3096 8.58273 18.0559 8.05585 18.0559 7.49132C18.0559 6.88914 18.2734 6.39985 18.7083 6.02349C19.1431 5.64714 19.7592 5.49661 20.4839 5.49661C21.1362 5.49661 21.6436 5.60955 22.0421 5.87296L22.0421 5.60955C22.0421 5.25826 21.9159 4.90702 21.6633 4.67814L21.6073 4.63102C21.3174 4.36755 20.955 4.21702 20.5564 4.21702C19.9403 4.21702 19.4692 4.48049 19.1431 5.00737L18.2009 4.40508C18.7806 3.61473 19.5417 3.23843 20.5564 3.23843ZM15.4468 0.679256C16.097 0.679256 16.715 0.914257 17.209 1.35249L17.2949 1.4319C17.8022 1.88355 18.0559 2.56102 18.0559 3.27608C18.0559 3.99114 17.8022 4.63096 17.2949 5.1202C16.7876 5.60949 16.1715 5.87291 15.4468 5.87291L13.7073 5.83526L13.7073 9.33537L12.6201 9.33537L12.6201 0.679199L15.4468 0.679256ZM20.7013 6.39985C20.2665 6.39985 19.9041 6.51273 19.6143 6.73855C19.3242 6.92673 19.1793 7.19014 19.1793 7.52885C19.1793 7.82996 19.3243 8.09338 19.5417 8.24396C19.7954 8.43214 20.0853 8.54502 20.3752 8.54502C20.7811 8.54502 21.187 8.38108 21.5044 8.08385L21.571 8.01814C21.9335 7.67943 22.1146 7.26543 22.1146 6.81379C21.7886 6.55038 21.3174 6.39979 20.7014 6.39979L20.7013 6.39985ZM15.5193 1.73302L13.7073 1.73302L13.7073 4.7439L15.5193 4.7439C15.9178 4.7439 16.3165 4.59338 16.5702 4.29232C17.1499 3.72779 17.1499 2.7869 16.6064 2.22232L16.5702 2.18467C16.2803 1.88361 15.9178 1.69543 15.5192 1.73308L15.5193 1.73302ZM29 3.42661L25.4124 11.9698L24.3252 11.9698L25.666 8.99667L23.3105 3.46426L24.4702 3.46426L26.1733 7.71702L26.2096 7.71702L27.8766 3.46426L29 3.46426L29 3.42661Z" fill="#5F6368" fill-opacity="1.000000" fill-rule="nonzero"/>
		<path id="Vector" d="M9.3949 5.08252C9.3949 4.74382 9.35864 4.40511 9.32239 4.06641L4.79272 4.06641L4.79272 5.98582L7.3656 5.98582C7.25696 6.58794 6.93079 7.15247 6.42346 7.49123L6.42346 8.73317L7.98169 8.73317C8.8877 7.86758 9.39502 6.58794 9.39502 5.08258L9.3949 5.08252Z" fill="#4285F4" fill-opacity="1.000000" fill-rule="nonzero"/>
		<path id="Vector" d="M4.7926 9.93764C6.09717 9.93764 7.18433 9.486 7.98157 8.73329L6.42334 7.49135C5.98853 7.79241 5.44495 7.98059 4.7926 7.98059C3.56042 7.98059 2.47327 7.115 2.11096 5.91064L0.516479 5.91064L0.516479 7.19023C1.34998 8.88382 2.98071 9.93764 4.7926 9.93764Z" fill="#34A853" fill-opacity="1.000000" fill-rule="nonzero"/>
		<path id="Vector" d="M2.11084 5.91092C1.89343 5.30874 1.89343 4.63132 2.11084 3.9915L2.11084 2.71191L0.516479 2.71191C-0.172119 4.10444 -0.172119 5.76038 0.516479 7.1905L2.11084 5.91092Z" fill="#FBBC04" fill-opacity="1.000000" fill-rule="nonzero"/>
		<path id="Vector" d="M4.7926 1.95908C5.48108 1.95908 6.1333 2.22255 6.64075 2.71178L8.01782 1.28167C7.14807 0.453667 5.9884 -0.0355682 4.82874 0.00202179C3.01685 0.00202179 1.34985 1.05584 0.552612 2.74943L2.14709 4.02902C2.47327 2.82467 3.56042 1.95908 4.7926 1.95908Z" fill="#EA4335" fill-opacity="1.000000" fill-rule="nonzero"/>
	</g>
</svg>
