<svg width="26.000000" height="20.000000" viewBox="0 0 26 20" fill="none" xmlns="http://www.w3.org/2000/svg" xmlns:xlink="http://www.w3.org/1999/xlink">
	<desc>
			Created with Pixso.
	</desc>
	<defs>
		<clipPath id="clip13_413">
			<rect id="logos:mastercard" width="26.000000" height="20.000000" fill="white" fill-opacity="0"/>
		</clipPath>
	</defs>
	<rect id="logos:mastercard" width="26.000000" height="20.000000" fill="#FFFFFF" fill-opacity="0"/>
	<g clip-path="url(#clip13_413)">
		<path id="Vector" d="M4.72668 19.9007L4.72668 18.577C4.72668 18.0695 4.41455 17.7386 3.87939 17.7386C3.61182 17.7386 3.32202 17.8268 3.12134 18.1137C2.96533 17.871 2.74243 17.7386 2.40796 17.7386C2.18494 17.7386 1.96204 17.8047 1.78369 18.0475L1.78369 17.7827L1.31543 17.7827L1.31543 19.9007L1.78369 19.9007L1.78369 18.7314C1.78369 18.3564 1.98438 18.1798 2.29651 18.1798C2.60852 18.1798 2.76477 18.3784 2.76477 18.7314L2.76477 19.9007L3.23291 19.9007L3.23291 18.7314C3.23291 18.3564 3.45581 18.1798 3.74561 18.1798C4.05786 18.1798 4.21387 18.3784 4.21387 18.7314L4.21387 19.9007L4.72668 19.9007ZM11.6605 17.7827L10.9025 17.7827L10.9025 17.1429L10.4343 17.1429L10.4343 17.7827L10.0107 17.7827L10.0107 18.2018L10.4342 18.2018L10.4342 19.1727C10.4342 19.6581 10.6349 19.9448 11.17 19.9448C11.3707 19.9448 11.5935 19.8787 11.7498 19.7905L11.6158 19.3933C11.4822 19.4815 11.3262 19.5036 11.2146 19.5036C10.9917 19.5036 10.9025 19.3713 10.9025 19.1506L10.9025 18.2018L11.6605 18.2018L11.6605 17.7827ZM15.6292 17.7385C15.3616 17.7385 15.1832 17.871 15.0718 18.0475L15.0718 17.7827L14.6035 17.7827L14.6035 19.9007L15.0718 19.9007L15.0718 18.7094C15.0718 18.3564 15.2278 18.1578 15.5176 18.1578C15.6068 18.1578 15.7183 18.1799 15.8075 18.2019L15.9413 17.7607C15.8521 17.7386 15.7183 17.7386 15.6292 17.7386L15.6292 17.7385ZM9.63171 17.9592C9.40869 17.8047 9.09656 17.7386 8.76208 17.7386C8.22705 17.7386 7.87036 18.0033 7.87036 18.4225C7.87036 18.7756 8.13794 18.9741 8.60608 19.0403L8.82898 19.0624C9.07434 19.1064 9.20801 19.1727 9.20801 19.283C9.20801 19.4374 9.02966 19.5478 8.71753 19.5478C8.4054 19.5478 8.16016 19.4374 8.00403 19.3272L7.78113 19.6801C8.02637 19.8566 8.36084 19.9448 8.69519 19.9448C9.31946 19.9448 9.67627 19.6581 9.67627 19.2609C9.67627 18.8858 9.38635 18.6873 8.94043 18.6211L8.71753 18.599C8.51685 18.5769 8.36084 18.5329 8.36084 18.4005C8.36084 18.246 8.51685 18.1578 8.76208 18.1578C9.02966 18.1578 9.29724 18.2681 9.43103 18.3343L9.63171 17.9592ZM22.0725 17.7386C21.8049 17.7386 21.6266 17.871 21.5151 18.0475L21.5151 17.7827L21.0469 17.7827L21.0469 19.9007L21.5151 19.9007L21.5151 18.7094C21.5151 18.3564 21.6711 18.1578 21.9609 18.1578C22.0502 18.1578 22.1617 18.1799 22.2509 18.2019L22.3846 17.7607C22.2955 17.7386 22.1617 17.7386 22.0725 17.7386ZM16.0973 18.8417C16.0973 19.4815 16.5432 19.9448 17.2345 19.9448C17.5465 19.9448 17.7694 19.8787 17.9924 19.7022L17.7694 19.3272C17.5911 19.4595 17.4128 19.5256 17.212 19.5256C16.833 19.5256 16.5656 19.2609 16.5656 18.8417C16.5656 18.4446 16.833 18.1798 17.212 18.1578C17.4128 18.1578 17.5911 18.2239 17.7694 18.3564L17.9924 17.9813C17.7694 17.8047 17.5465 17.7386 17.2345 17.7386C16.5432 17.7386 16.0973 18.2019 16.0973 18.8417ZM20.4227 18.8417L20.4227 17.7827L19.9545 17.7827L19.9545 18.0475C19.7983 17.849 19.5754 17.7386 19.2856 17.7386C18.6836 17.7386 18.2155 18.2019 18.2155 18.8417C18.2155 19.4815 18.6836 19.9448 19.2856 19.9448C19.5977 19.9448 19.8207 19.8346 19.9545 19.636L19.9545 19.9007L20.4227 19.9007L20.4227 18.8417ZM18.7059 18.8417C18.7059 18.4666 18.9512 18.1578 19.3524 18.1578C19.7314 18.1578 19.999 18.4446 19.999 18.8417C19.999 19.2168 19.7314 19.5256 19.3524 19.5256C18.9512 19.5035 18.7059 19.2168 18.7059 18.8417ZM13.1097 17.7386C12.4855 17.7386 12.0396 18.1798 12.0396 18.8417C12.0396 19.5036 12.4854 19.9448 13.1321 19.9448C13.4441 19.9448 13.7563 19.8566 14.0016 19.6581L13.7786 19.3272C13.6002 19.4595 13.3773 19.5478 13.1544 19.5478C12.8645 19.5478 12.5747 19.4154 12.5077 19.0402L14.0908 19.0402L14.0908 18.8638C14.1132 18.1798 13.7118 17.7386 13.1097 17.7386ZM13.1097 18.1357C13.3995 18.1357 13.6003 18.3123 13.6448 18.6432L12.53 18.6432C12.5747 18.3564 12.7754 18.1357 13.1097 18.1357ZM24.7257 18.8417L24.7257 16.9443L24.2574 16.9443L24.2574 18.0475C24.1014 17.849 23.8784 17.7386 23.5886 17.7386C22.9866 17.7386 22.5184 18.2019 22.5184 18.8417C22.5184 19.4815 22.9866 19.9448 23.5886 19.9448C23.9008 19.9448 24.1238 19.8346 24.2574 19.636L24.2574 19.9007L24.7257 19.9007L24.7257 18.8417ZM23.009 18.8417C23.009 18.4666 23.2542 18.1578 23.6555 18.1578C24.0345 18.1578 24.3021 18.4446 24.3021 18.8417C24.3021 19.2168 24.0345 19.5256 23.6555 19.5256C23.2542 19.5035 23.009 19.2168 23.009 18.8417ZM7.35754 18.8417L7.35754 17.7827L6.88928 17.7827L6.88928 18.0475C6.73315 17.849 6.51025 17.7386 6.22034 17.7386C5.61841 17.7386 5.15027 18.2019 5.15027 18.8417C5.15027 19.4815 5.61841 19.9448 6.22034 19.9448C6.53259 19.9448 6.75549 19.8346 6.88928 19.636L6.88928 19.9007L7.35754 19.9007L7.35754 18.8417ZM5.61841 18.8417C5.61841 18.4666 5.86365 18.1578 6.26501 18.1578C6.64404 18.1578 6.91162 18.4446 6.91162 18.8417C6.91162 19.2168 6.64404 19.5256 6.26501 19.5256C5.86365 19.5035 5.61841 19.2168 5.61841 18.8417Z" fill="#151618" fill-opacity="1.000000" fill-rule="nonzero"/>
		<path id="Vector" d="M9.47559 1.69873L16.4987 1.69873L16.4987 14.1863L9.47559 14.1863L9.47559 1.69873Z" fill="#FF5F00" fill-opacity="1.000000" fill-rule="nonzero"/>
		<path id="Vector" d="M9.92151 7.94261C9.92151 5.40543 11.1255 3.15498 12.976 1.6988C11.616 0.639797 9.89929 0 8.02649 0C3.58948 0 0 3.55206 0 7.94261C0 12.3331 3.58948 15.8852 8.02637 15.8852C9.89917 15.8852 11.616 15.2454 12.976 14.1863C11.1255 12.7523 9.92151 10.4798 9.92151 7.94261Z" fill="#EB001B" fill-opacity="1.000000" fill-rule="nonzero"/>
		<path id="Vector" d="M25.9742 7.94261C25.9742 12.3331 22.3846 15.8852 17.9479 15.8852C16.0751 15.8852 14.3583 15.2454 12.9983 14.1863C14.8711 12.7303 16.0527 10.4798 16.0527 7.94261C16.0527 5.40543 14.8488 3.15498 12.9983 1.6988C14.3582 0.639797 16.0751 0 17.9479 0C22.3846 0 25.9742 3.57417 25.9742 7.94261Z" fill="#F79E1B" fill-opacity="1.000000" fill-rule="nonzero"/>
	</g>
</svg>
