<svg width="10.000000" height="12.000000" viewBox="0 0 10 12" fill="none" xmlns="http://www.w3.org/2000/svg" xmlns:xlink="http://www.w3.org/1999/xlink">
	<desc>
			Created with Pixso.
	</desc>
	<defs>
		<clipPath id="clip13_425">
			<rect id="logos:paypal" width="10.000000" height="12.000000" fill="white" fill-opacity="0"/>
		</clipPath>
	</defs>
	<rect id="logos:paypal" width="10.000000" height="12.000000" fill="#FFFFFF" fill-opacity="0"/>
	<g clip-path="url(#clip13_425)">
		<path id="Vector" d="M8.48291 0.933857C7.93872 0.302784 6.95483 0.0322266 5.69604 0.0322266L2.04297 0.0322266C1.91846 0.0322304 1.79785 0.0774269 1.70312 0.159687C1.60864 0.241947 1.5459 0.355877 1.52637 0.480995L0.00512695 10.2943C-0.0251465 10.4878 0.122314 10.663 0.314941 10.663L2.57031 10.663L3.13672 7.00852L3.11914 7.12296C3.15942 6.86464 3.37671 6.67411 3.63403 6.67411L4.70557 6.67411C6.81104 6.67411 8.45947 5.80423 8.94116 3.28784C8.95532 3.21342 8.96777 3.14098 8.97852 3.07021C9.12183 2.14013 8.97754 1.50703 8.48291 0.933857Z" fill="#27346A" fill-opacity="1.000000" fill-rule="nonzero"/>
		<path id="Vector" d="M3.99976 2.73517C4.06128 2.7053 4.12891 2.68983 4.19702 2.68987L7.06104 2.68987C7.40015 2.68987 7.71655 2.71232 8.00562 2.75964C8.08643 2.77276 8.16699 2.78843 8.24683 2.80661C8.36011 2.83204 8.47217 2.86317 8.58252 2.89987C8.72461 2.94815 8.85693 3.00437 8.97852 3.07021C9.12183 2.13978 8.97754 1.50703 8.48291 0.933857C7.93848 0.302784 6.95483 0.0322266 5.69604 0.0322266L2.04272 0.0322266C1.7854 0.0322266 1.56665 0.222717 1.52637 0.480995L0.00512695 10.2939C-0.0251465 10.4877 0.122314 10.6627 0.314697 10.6627L2.57031 10.6627L3.74536 3.08245C3.75708 3.00794 3.78613 2.93741 3.83057 2.87691C3.87476 2.81642 3.93286 2.76777 3.99976 2.73517Z" fill="#27346A" fill-opacity="1.000000" fill-rule="nonzero"/>
		<path id="Vector" d="M8.94141 3.28794C8.45972 5.80397 6.81128 6.67421 4.70581 6.67421L3.63379 6.67421C3.37671 6.67421 3.15942 6.86473 3.11938 7.12305L2.41479 11.667C2.38843 11.8363 2.51733 11.9898 2.68555 11.9898L4.58691 11.9898C4.6958 11.9897 4.80103 11.9502 4.88379 11.8782C4.96655 11.8063 5.02148 11.7066 5.03857 11.5972L5.05713 11.4986L5.41528 9.1886L5.43848 9.06094C5.45557 8.95152 5.51025 8.85188 5.59302 8.77991C5.67578 8.70795 5.78125 8.66839 5.89014 8.66835L6.17456 8.66835C8.01636 8.66835 9.45825 7.90726 9.87988 5.7061C10.0557 4.78623 9.9646 4.01823 9.49927 3.47879C9.35815 3.3154 9.18286 3.18046 8.97876 3.07031C8.96777 3.14144 8.95581 3.21352 8.94141 3.28794Z" fill="#2790C3" fill-opacity="1.000000" fill-rule="nonzero"/>
		<path id="Vector" d="M8.47461 2.86593C8.39966 2.84362 8.32373 2.82388 8.24731 2.80672C8.16748 2.78884 8.08691 2.77328 8.0061 2.76007C7.7168 2.71243 7.40063 2.68994 7.06128 2.68994L4.19751 2.68994C4.12915 2.68979 4.06177 2.70539 4.00024 2.7356C3.93335 2.7681 3.875 2.81672 3.83081 2.87723C3.78638 2.93774 3.75732 3.00833 3.74585 3.08288L3.13721 7.00863L3.11963 7.12307C3.15967 6.86475 3.37695 6.67422 3.63403 6.67422L4.70605 6.67422C6.81152 6.67422 8.45996 5.80434 8.94165 3.28796C8.95581 3.21353 8.96802 3.14141 8.979 3.07033C8.85693 3.00484 8.7251 2.94826 8.58301 2.9003C8.54712 2.88821 8.51099 2.87675 8.47461 2.86593Z" fill="#1F264F" fill-opacity="1.000000" fill-rule="nonzero"/>
	</g>
</svg>
