<svg width="22.000000" height="18.000000" viewBox="0 0 22 18" fill="none" xmlns="http://www.w3.org/2000/svg" xmlns:xlink="http://www.w3.org/1999/xlink">
	<desc>
			Created with Pixso.
	</desc>
	<defs/>
	<path id="icon" d="M18.783 1.20311C19.1313 1.12346 19.3745 1.04515 19.5735 0.962891C19.8525 0.84761 20.0837 0.709518 20.4492 0.476944C20.7563 0.281494 21.1499 0.264465 21.4739 0.432632C21.7981 0.6008 22 0.926971 22 1.28181C22 2.3242 21.8655 3.17856 21.5535 3.93044C21.2913 4.56285 20.9226 5.07652 20.4817 5.54405C20.2954 8.78728 19.322 11.3342 17.8337 13.2638C16.291 15.2637 14.2388 16.5445 12.0752 17.2617C9.91797 17.9768 7.63867 18.1366 5.59668 17.8945C3.56812 17.654 1.69312 17.0063 0.38623 16.026C0.0283203 15.7575 -0.0976562 15.2904 0.0795898 14.8879C0.256836 14.4854 0.692627 14.2483 1.1416 14.3101C2.42749 14.4873 3.66528 14.2054 4.68335 13.8022C4.48291 13.6971 4.29395 13.5833 4.11841 13.4661C3.19092 12.8468 2.44238 12.0063 2.10571 11.3566C1.96631 11.0878 1.96484 10.7717 2.10181 10.5016C2.17236 10.3624 2.27563 10.2436 2.40112 10.1531C1.04688 9.07526 0.5 7.58447 0.5 6.58572C0.5 6.28876 0.641846 6.00836 0.884766 5.82561C0.986816 5.74876 1.10181 5.69279 1.22314 5.65909C1.12183 5.37292 1.04321 5.0838 0.983154 4.80389C0.717529 3.56291 0.740967 2.16225 1.03003 1.04793C1.12866 0.666611 1.45776 0.381302 1.86133 0.326782C2.26489 0.272263 2.6626 0.459457 2.86621 0.799911C3.94385 2.601 5.93115 3.70192 7.78101 4.35405C8.65063 4.66064 9.45605 4.85603 10.0598 4.97615C10.1899 3.79907 10.5308 2.82837 11.054 2.05739C11.7439 1.04021 12.7065 0.438385 13.7402 0.170029C15.5227 -0.292755 17.501 0.234497 18.783 1.20311ZM9.74854 6.8833C9.06348 6.75064 8.12183 6.52777 7.09424 6.16548C5.73706 5.68698 4.16089 4.94086 2.84082 3.78511C2.8645 3.99779 2.89795 4.20866 2.94189 4.41382C3.16309 5.44696 3.57422 6.02556 3.94727 6.20541C4.40356 6.42538 4.61499 6.94122 4.43799 7.40254C4.19824 8.02711 3.56812 8.0784 2.99561 7.94034C3.45605 8.60619 4.28394 9.27003 5.66455 9.49194C6.14062 9.56847 6.49219 9.96214 6.5 10.4276C6.50781 10.8931 6.16968 11.2975 5.69629 11.3888L4.82568 11.5567C4.95898 11.6683 5.10303 11.7777 5.25684 11.8803C5.95361 12.3456 6.65332 12.5463 7.25757 12.4007C7.70996 12.2916 8.18066 12.4986 8.3916 12.8996C8.60278 13.3006 8.49854 13.7891 8.14014 14.077C7.49634 14.5939 6.74438 15.0086 5.99072 15.3529C5.63672 15.5145 5.24146 15.674 4.81201 15.8144C5.14233 15.8823 5.48584 15.9381 5.84082 15.9802C7.61133 16.1901 9.58228 16.0486 11.425 15.4378C13.2615 14.829 14.959 13.7592 16.229 12.1127C17.4971 10.4685 18.3821 8.19313 18.5007 5.10356C18.51 4.86032 18.6145 4.62949 18.793 4.45737C19.2427 4.02374 19.6143 3.52673 19.7971 2.93513C19.4771 3.0313 19.1169 3.11455 18.6877 3.19363C18.3623 3.25365 18.0273 3.15428 17.793 2.92834C17.0283 2.19109 15.5164 1.70624 14.26 2.03242C13.6687 2.18594 13.1311 2.51828 12.7275 3.1133C12.3154 3.72081 12 4.66724 12 6.10359C12 6.37646 11.8801 6.63658 11.6702 6.81943C11.1721 7.25293 10.334 6.99669 9.74854 6.8833Z" fill="#0F0F0F" fill-opacity="1.000000" fill-rule="evenodd"/>
</svg>
