<svg width="31.000000" height="10.000000" viewBox="0 0 31 10" fill="none" xmlns="http://www.w3.org/2000/svg" xmlns:xlink="http://www.w3.org/1999/xlink">
	<desc>
			Created with Pixso.
	</desc>
	<defs>
		<linearGradient id="paint_linear_13_414_0" x1="1425.189941" y1="30.059174" x2="1701.182373" y2="-990.000916" gradientUnits="userSpaceOnUse">
			<stop stop-color="#222357"/>
			<stop offset="1.000000" stop-color="#254AA5"/>
		</linearGradient>
	</defs>
	<path id="Vector" d="M16.0325 3.19688C16.0148 4.58993 17.2753 5.36725 18.2247 5.82946C19.2003 6.30365 19.528 6.60776 19.524 7.03186C19.5168 7.68084 18.746 7.96729 18.0245 7.97842C16.766 7.99789 16.0343 7.63899 15.4525 7.36754L14.9991 9.48674C15.5829 9.75541 16.6636 9.98972 17.7843 10C20.415 10 22.1362 8.70276 22.1455 6.69146C22.1558 4.13884 18.611 3.99755 18.6353 2.85661C18.6436 2.51064 18.9741 2.14146 19.6982 2.04759C20.0566 2.00017 21.0461 1.96388 22.1678 2.47992L22.6082 0.42955C22.0049 0.210117 21.2295 0 20.2642 0C17.7881 0 16.0465 1.3149 16.0325 3.19688ZM26.839 0.176609C26.3586 0.176609 25.9537 0.456524 25.7731 0.886074L22.0153 9.8494L24.644 9.8494L25.1671 8.40519L28.3795 8.40519L28.683 9.8494L31 9.8494L28.9781 0.176609L26.839 0.176609ZM27.2068 2.78959L27.9653 6.42183L25.8877 6.42183L27.2068 2.78959ZM12.8451 0.176731L10.7729 9.84928L13.2781 9.84928L15.3492 0.176491L12.8451 0.176731ZM9.13928 0.176491L6.53186 6.7603L5.47717 1.16236C5.35339 0.537453 4.86475 0.176609 4.3219 0.176609L0.0596924 0.176609L0 0.457493C0.875 0.647167 1.86926 0.953087 2.47156 1.28042C2.84009 1.48038 2.94519 1.65517 3.06628 2.13033L5.06396 9.8494L7.7113 9.8494L11.7698 0.176609L9.13928 0.176491Z" fill="url(#paint_linear_13_414_0)" fill-opacity="1.000000" fill-rule="nonzero"/>
</svg>
