<svg width="24.000000" height="18.000000" viewBox="0 0 24 18" fill="none" xmlns="http://www.w3.org/2000/svg" xmlns:xlink="http://www.w3.org/1999/xlink">
	<desc>
			Created with Pixso.
	</desc>
	<defs/>
	<path id="icon" d="M0.954834 2.06108C0 3.3754 0 5.25027 0 9C0 12.7497 0 14.6246 0.954834 15.9389C1.26343 16.3634 1.63672 16.7367 2.06104 17.0451C3.37549 18 5.25024 18 9 18L15 18C18.7498 18 20.6245 18 21.939 17.0451C22.3633 16.7367 22.7366 16.3634 23.0452 15.9389C24 14.6246 24 12.7497 24 9C24 5.25027 24 3.3754 23.0452 2.06108C22.7366 1.6366 22.3633 1.26331 21.939 0.95491C20.6245 0 18.7498 0 15 0L9 0C5.25024 0 3.37549 0 2.06104 0.95491C1.63672 1.26331 1.26343 1.6366 0.954834 2.06108ZM15 2L9 2C7.08057 2 5.80176 2.00275 4.83276 2.10773C3.90112 2.20865 3.49609 2.38448 3.23657 2.57295C2.98193 2.758 2.75806 2.98196 2.573 3.23665C2.38452 3.49605 2.20874 3.90112 2.10767 4.83269C2.00269 5.80167 2 7.08058 2 9C2 10.9194 2.00269 12.1983 2.10767 13.1673C2.20874 14.0989 2.38452 14.504 2.573 14.7634C2.75806 15.018 2.98193 15.242 3.23657 15.427C3.49609 15.6155 3.90112 15.7914 4.83276 15.8923C5.80176 15.9973 7.08057 16 9 16L15 16C16.9194 16 18.1982 15.9973 19.1672 15.8923C20.0989 15.7914 20.5039 15.6155 20.7634 15.427C21.0181 15.242 21.2419 15.018 21.427 14.7634C21.6155 14.504 21.7913 14.0989 21.8923 13.1673C21.9973 12.1983 22 10.9194 22 9C22 7.08058 21.9973 5.80167 21.8923 4.83269C21.7913 3.90112 21.6155 3.49605 21.427 3.23665C21.2419 2.98196 21.0181 2.758 20.7634 2.57295C20.5039 2.38448 20.0989 2.20865 19.1672 2.10773C18.1982 2.00275 16.9194 2 15 2ZM8.49805 4.13509C8.8064 3.95616 9.18652 3.9549 9.49609 4.13176L16.4961 8.13176C16.8076 8.3098 17 8.64114 17 9C17 9.35886 16.8076 9.6902 16.4961 9.86824L9.49609 13.8682C9.18652 14.0451 8.8064 14.0438 8.49805 13.8649C8.1897 13.686 8 13.3565 8 13L8 5C8 4.64352 8.1897 4.31401 8.49805 4.13509ZM10 11.2768L13.9844 9L10 6.72318L10 11.2768Z" fill="#0F0F0F" fill-opacity="1.000000" fill-rule="evenodd"/>
</svg>
